HIERARCHY
ROOT Hips
{
  OFFSET -187.679 86.5976 -156.378
  CHANNELS 6 Xposition Yposition Zposition Zrotation Xrotation Yrotation
  JOINT LeftUpLeg
  {
    OFFSET 8.64259 1.95398 -2.38835
    CHANNELS 3 Zrotation Xrotation Yrotation
    JOINT LeftLeg
    {
      OFFSET 43.7702 0 0
      CHANNELS 3 Zrotation Xrotation Yrotation
      JOINT LeftFoot
      {
        OFFSET 40.6238 0 0
        CHANNELS 3 Zrotation Xrotation Yrotation
        JOINT LeftToeBase
        {
          OFFSET 12.7242 0 0
          CHANNELS 3 Zrotation Xrotation Yrotation
          End Site
          {
            OFFSET 0 0 0
          }
        }
      }
    }
  }
  JOINT RightUpLeg
  {
    OFFSET -8.2249 1.95398 -2.59336
    CHANNELS 3 Zrotation Xrotation Yrotation
    JOINT RightLeg
    {
      OFFSET 43.5653 0 0
      CHANNELS 3 Zrotation Xrotation Yrotation
      JOINT RightFoot
      {
        OFFSET 40.6238 0 0
        CHANNELS 3 Zrotation Xrotation Yrotation
        JOINT RightToeBase
        {
          OFFSET 12.7242 0 0
          CHANNELS 3 Zrotation Xrotation Yrotation
          End Site
          {
            OFFSET 0 0 0
          }
        }
      }
    }
  }
  JOINT Spine
  {
    OFFSET 0.165834 0.87714 6.61349
    CHANNELS 3 Zrotation Xrotation Yrotation
    JOINT Spine1
    {
      OFFSET 7.38963 1.71661e-005 0
      CHANNELS 3 Zrotation Xrotation Yrotation
      JOINT Spine2
      {
        OFFSET 11.9445 1.14441e-005 0
        CHANNELS 3 Zrotation Xrotation Yrotation
        JOINT Spine3
        {
          OFFSET 14.7254 4.19617e-005 0
          CHANNELS 3 Zrotation Xrotation Yrotation
          JOINT Spine4
          {
            OFFSET 10.9679 0 0
            CHANNELS 3 Zrotation Xrotation Yrotation
            JOINT RightShoulder
            {
              OFFSET 2.46616 -1.6653 3.69651
              CHANNELS 3 Zrotation Xrotation Yrotation
              JOINT RightArm
              {
                OFFSET 13.0012 0 0
                CHANNELS 3 Zrotation Xrotation Yrotation
                JOINT RightForeArm
                {
                  OFFSET 28.7848 1.52588e-005 0
                  CHANNELS 3 Zrotation Xrotation Yrotation
                  JOINT RightHand
                  {
                    OFFSET 26.5688 1.52588e-005 0
                    CHANNELS 3 Zrotation Xrotation Yrotation
                    End Site
                    {
                      OFFSET 0 0 0
                    }
                  }
                }
              }
            }
            JOINT LeftShoulder
            {
              OFFSET 2.38034 -1.29275 -3.7523
              CHANNELS 3 Zrotation Xrotation Yrotation
              JOINT LeftArm
              {
                OFFSET 16.3182 6.10352e-005 0
                CHANNELS 3 Zrotation Xrotation Yrotation
                JOINT LeftForeArm
                {
                  OFFSET 27.0901 0 0
                  CHANNELS 3 Zrotation Xrotation Yrotation
                  JOINT LeftHand
                  {
                    OFFSET 24.5451 1.52588e-005 0
                    CHANNELS 3 Zrotation Xrotation Yrotation
                    End Site
                    {
                      OFFSET 0 0 0
                    }
                  }
                }
              }
            }
            JOINT Neck
            {
              OFFSET 5.0226 -0.0266342 0
              CHANNELS 3 Zrotation Xrotation Yrotation
              JOINT Head
              {
                OFFSET 6.69363 2.86102e-005 0
                CHANNELS 3 Zrotation Xrotation Yrotation
                End Site
                {
                  OFFSET 0 0 0
                }
              }
            }
          }
        }
      }
    }
  }
}
MOTION
Frames:	17
Frame Time:	0.0416667
662.794 606.034 -1251.74 -98.9764 -28.2103 -100.982 -179.858 23.5453 120.384 -5.33131 30.0294 -2.04397 55.5254 -36.5037 -22.845 6.01058 10.6035 -37.2734 125.895 -47.0762 -3.95081 -1.12089 -17.8102 -0.109759 88.8197 31.9286 18.3658 13.1383 -15.5298 27.8638 0.97833 7.53313 -88.6188 11.7947 2.59536 2.46784 0.124306 2.70141 2.35124 -22.4042 1.73403 3.13332 -2.39154 1.73402 3.13331 90.2548 -36.5637 -103.826 40.2947 -13.855 -14.3735 2.05666 -25.5991 -5.57448 -11.6122 -0.889635 4.06286 -87.2636 -43.3205 81.8277 -21.9094 -1.7145 -18.1924 3.73967 10.5128 -15.3798 9.37072 1.53632 11.5115 13.3623 1.45228 -4.29676 -6.16532 2.94313 -14.2457 
302.603 720.452 -1046.03 -103.967 -32.2469 -96.6786 -170.004 -13.4618 127.575 -7.31578 36.5815 -1.10964 81.3472 -25.5778 -12.2065 6.23521 10.099 -36.2833 175.947 -15.4582 15.2361 -1.67355 -9.38341 -0.0310364 41.2009 46.2996 48.7508 12.2125 -15.5595 27.049 -0.121754 7.77879 -89.7596 11.3212 -0.130156 0.492352 -0.349879 -0.108389 0.497602 -22.8841 -0.272109 0.430468 -2.87146 -0.27212 0.430461 90.1799 -36.4523 -103.997 38.6257 -13.5446 -11.0631 0.973461 -23.112 -7.99893 -11.1558 -0.652913 1.84253 -87.178 -40.6182 81.4224 -22.2886 2.99044 -19.3975 0.96461 9.29347 -17.477 7.62633 1.05633 8.58158 6.96966 2.95876 -4.57281 -11.4261 4.73322 -12.02 
-61.0332 780.83 -838.167 -103.573 -40.8676 -93.7801 -160.813 -30.2024 130.183 -6.85917 27.4671 -2.5429 97.1611 -19.984 -11.1673 6.78017 9.43292 -34.9361 -162.227 33.6105 33.6305 -2.80145 -8.4901 0.184591 11.4256 27.4432 44.1391 12.4535 -15.066 26.2963 -1.09527 7.97124 -90.374 10.9274 -2.35357 -0.521376 -0.741466 -2.37421 -0.417243 -23.2899 -2.08802 -1.20487 -3.27728 -2.08804 -1.20489 90.3953 -37.0408 -103.425 38.8187 -11.2856 -8.89548 -0.868916 -20.3979 -7.99105 -10.682 -0.569786 1.25728 -87.6103 -37.6835 80.0421 -21.8467 7.83185 -26.2627 -1.38771 14.8868 -15.5633 8.34254 1.05556 7.948 7.13654 2.19854 -5.85371 -12.1279 4.16445 -9.94377 
-435.828 722.968 -606.991 -102.657 -48.5737 -90.4149 -157.665 -34.7519 129.296 -4.12363 29.8814 -7.60558 106.972 -10.1047 -14.6078 10.5705 7.2321 -29.2733 -165.476 59.7293 53.3601 -4.70694 -8.57023 1.0546 15.4228 19.4112 27.7978 14.6839 -14.2063 26.6322 -1.82332 8.13768 -90.973 10.5714 -4.07855 -1.56568 -1.0938 -4.14351 -1.38441 -23.6602 -3.41945 -2.71994 -3.64755 -3.41944 -2.71994 90.1061 -38.4154 -103.52 38.0354 -9.76442 -7.08214 -1.36014 -19.0715 -6.23476 -10.098 -0.535886 1.15635 -88.3149 -39.0275 79.1481 -21.3578 9.22904 -32.583 -1.94182 18.383 -14.3493 9.60703 1.34871 9.44637 9.16516 0.845482 -6.67565 -11.9556 3.00445 -8.71466 
-675.647 646.841 -400.395 -102.695 -54.2834 -88.0733 -146.083 -44.8691 138.644 -6.26967 36.2536 -3.24533 129.085 3.64264 -11.1073 4.18851 10.875 -38.1934 -178.577 70.9838 73.4467 -5.94761 -7.09153 2.61923 22.5427 15.1608 18.5851 15.3482 -13.949 26.7276 -2.08463 8.38835 -91.2251 10.0521 -4.71127 -2.03637 -1.61164 -4.79631 -1.82669 -24.184 -3.88158 -3.35923 -4.17132 -3.88156 -3.35923 90.0486 -39.8565 -103.196 38.0827 -9.52108 -6.09957 -1.75912 -19.3422 -6.17563 -8.26852 -0.35855 0.117793 -89.0488 -39.637 78.0579 -22.614 11.1731 -37.7081 -0.973282 23.1861 -15.502 6.90843 1.04025 9.55221 11.2239 -1.10733 -8.89157 -9.27503 1.55473 -9.27471 
-813.515 585.649 -247.76 -106.168 -53.6393 -92.6367 -129.404 -53.7833 153.747 -6.23976 37.7356 -3.30998 145.108 10.2643 -14.9899 2.04528 9.61769 -35.5551 169.953 70.9817 87.9258 -6.25399 -4.65931 4.06216 24.8383 10.5428 13.3181 16.3275 -13.3875 26.4789 -2.15811 8.66228 -90.7158 9.53501 -4.62581 -1.06962 -2.12793 -4.6684 -0.864591 -24.7145 -4.09022 -2.41239 -4.7018 -4.09023 -2.4124 90.2391 -41.4517 -102.411 38.1986 -8.36903 -8.31182 -2.17849 -22.6754 -4.45779 -9.48381 -0.681587 3.49551 -89.6634 -40.24 77.1794 -27.1189 11.2653 -33.2818 5.12515 32.2324 -21.8658 4.75901 0.779312 9.64195 12.1206 -1.14931 -11.1904 -6.36764 1.99416 -11.679 
-926.3 519.163 -138.966 -102.134 -51.583 -89.1348 -122.241 -55.2189 160.134 -5.36861 39.2254 -4.64861 134.696 11.2479 -9.82355 18.8118 12.8472 -42.8515 162.809 69.4568 96.9116 -6.21329 0.511327 4.06979 22.0165 5.84644 9.5187 15.6833 -13.3213 25.7126 -1.96264 8.02004 -90.8374 10.8135 -4.29448 -1.26579 -0.850809 -4.34605 -1.07523 -23.4262 -3.7154 -2.49928 -3.41359 -3.71539 -2.49928 89.8338 -41.1523 -103.184 39.6101 -6.11062 -5.27127 -4.57784 -13.035 -5.13231 -8.32548 -0.421918 0.958061 -89.7517 -41.8377 77.4414 -31.1787 13.4 -27.6125 1.05292 38.3719 -16.0345 3.31348 0.625937 10.0896 12.3651 -0.906914 -9.68258 -6.17331 1.84518 -11.1689 
-1040.4 467.213 -18.3497 -101.264 -52.1813 -90.4026 -115.716 -57.9545 166.503 -6.7031 40.8337 0.242771 111.716 1.01803 -9.70925 25.4701 13.3721 -45.8157 168.67 65.1286 88.6936 -5.32771 4.36018 2.57786 5.76918 4.41335 6.85543 10.5917 -14.3997 23.351 -1.59498 7.92464 -91.0565 10.9951 -3.66427 -1.75224 -0.671716 -3.73782 -1.58912 -23.2264 -2.96837 -2.77284 -3.21372 -2.96834 -2.77284 89.3965 -40.6528 -104.076 35.2312 -8.51712 -9.42453 -0.793014 -16.4883 -0.888537 -8.96153 -0.575449 2.62344 -89.6716 -42.3423 77.6977 -33.3554 13.856 -22.9004 -5.39782 28.434 -9.34312 5.6532 0.997029 11.2357 19.3933 -1.16276 -4.76073 -2.84962 0.348454 -6.64217 
-1188.1 501.166 209.034 -100.872 -50.3947 -91.2359 -106.387 -59.5038 176.999 -2.57354 50.6777 0.210287 94.8399 -3.38477 -9.38959 7.53209 9.76543 -35.2849 173.706 55.714 81.7203 -3.71002 -0.117362 1.21373 13.5225 6.57144 11.8329 11.3506 -13.8348 22.8822 -0.440957 8.00842 -91.0391 10.8371 -1.35815 -1.943 -0.834601 -1.44233 -1.88137 -23.3593 -0.711664 -2.26119 -3.34666 -0.711651 -2.2612 89.7535 -38.7393 -104.043 32.6579 -11.1812 -16.2643 0.897936 -21.5355 -2.70199 -8.09697 -0.490278 2.0881 -89.7493 -43.7159 77.9095 -29.98 8.80663 -18.8939 -2.64194 27.21 -10.2518 8.60459 1.54644 12.3 23.9539 -1.36672 1.84634 2.56464 -2.05627 -2.4168 
-1391.11 569.047 521.561 -101.528 -50.7076 -96.9265 -122.35 -53.6547 176.295 -1.44805 47.3578 0.0553885 105.812 -17.2339 -8.74173 6.5218 11.5838 -39.2792 177.539 28.3669 62.5232 -4.40608 -2.21821 1.53123 37.4387 18.9381 16.8981 13.2791 -14.0048 24.915 0.8284 7.89575 -90.1476 11.0902 1.58005 -0.450909 -0.579922 1.55865 -0.520037 -23.1226 1.6425 0.0449367 -3.10994 1.64249 0.0449249 90.7915 -35.5201 -103.175 32.8257 -17.1276 -20.3435 2.11712 -31.5773 -8.64048 -3.5001 -0.117341 -1.63779 -89.249 -44.6054 78.9138 -26.6417 1.84094 -17.0007 1.93228 22.1894 -11.3037 9.68297 1.8636 14.2842 21.8982 -4.07892 3.39824 0.0918286 -5.1306 -4.36321 
-1637.57 665.11 831.3 -102.634 -47.1043 -103.486 -172.233 -9.63255 160.459 -2.11761 35.3211 -0.189024 69.6931 -60.9446 -37.3497 3.10668 10.6027 -37.4024 169.13 -6.56782 51.2007 -6.27501 -7.419 2.1257 62.2195 29.5009 19.157 17.1655 -13.5018 27.5663 1.85846 7.99561 -88.9721 10.8541 4.17522 1.65374 -0.810942 4.24396 1.46811 -23.3779 3.48518 2.83299 -3.36526 3.4852 2.83299 91.2864 -34.612 -102.538 32.017 -22.6829 -25.9737 5.8902 -39.6045 -9.07743 -2.17898 -0.0440401 -3.62126 -88.6423 -44.2753 79.8072 -23.2846 -0.34248 -11.7954 8.37356 27.9907 -19.5352 4.29654 0.77965 10.6003 19.3076 -6.55844 0.349759 -3.98512 -6.33774 -9.56106 
-1917.37 733.472 1132.38 -99.3325 -42.3514 -103.129 161.992 45.1948 145.248 -3.71606 26.0614 -0.603286 12.2624 -43.8767 -62.1151 1.53221 10.0134 -36.4039 160.73 -24.7378 47.923 -6.71672 -21.9226 1.75319 92.4161 24.3311 9.03514 14.6708 -13.7066 25.5615 2.30386 7.93895 -88.4301 10.9314 5.31277 2.62063 -0.730885 5.42292 2.38378 -23.3062 4.27989 4.0972 -3.29358 4.27992 4.09721 90.3829 -33.4411 -104.607 31.277 -25.9518 -28.903 7.5215 -43.9386 -10.7377 -4.48943 -0.12933 -2.27579 -88.5735 -43.8549 79.825 -20.3282 3.19915 -6.26415 4.59461 25.0231 -19.6543 5.67134 0.733974 7.42204 19.3676 -6.29822 -0.0385271 -4.145 -5.93012 -11.8945 
-2188.35 689.565 1381.12 -99.5325 -38.2671 -104.132 160.167 63.7151 134.694 -5.90999 22.9253 -1.63478 19.5591 -33.6116 -42.4341 9.08961 10.116 -36.1464 154.011 -32.5979 43.3118 -6.72956 -12.2236 2.9568 101.468 26.481 7.0469 18.0758 -13.3504 28.1524 2.30411 8.16548 -88.3106 10.472 5.36459 2.88632 -1.19057 5.48635 2.64698 -23.7609 4.24967 4.36581 -3.74828 4.24967 4.3658 90.1823 -33.3801 -105.007 30.2794 -27.0883 -32.2445 10.2246 -46.6746 -9.2315 -6.29035 -0.254452 -0.329356 -88.0708 -43.6936 80.6023 -23.2034 4.02678 -2.95496 1.70487 23.4782 -16.0729 6.53972 0.824412 7.48992 20.3924 -4.75688 0.801095 -4.2512 -4.68731 -12.2881 
-2392.8 602.595 1525.51 -102.724 -34.8392 -105.979 171.02 68.2781 119.803 -4.73483 17.817 -6.03281 26.8472 -25.0891 -29.233 10.9509 9.05736 -33.7588 140.591 -42.7449 29.1895 -7.1347 -6.36339 2.84844 120.479 26.4523 2.45203 19.5773 -12.6405 28.1008 2.22655 8.51854 -88.6027 9.78442 5.07107 2.36172 -1.87831 5.17005 2.1358 -24.4536 4.127 3.77768 -4.44092 4.12699 3.77768 89.8346 -34.6156 -105.232 29.4635 -27.1028 -32.1434 9.85199 -50.0148 -9.63357 -3.52248 -0.107301 -1.62979 -88.5408 -45.4581 80.2243 -28.3557 3.75172 -0.842962 0.516797 20.0654 -13.3342 3.41646 0.462848 6.58069 18.9136 -2.55185 3.12696 -1.23629 -3.54862 -11.1838 
-2527.81 523.037 1613.51 -104.431 -35.1379 -103.227 177.458 68.5544 113.021 -3.61246 14.7927 -12.5147 29.4364 -17.6325 -24.3801 10.144 6.29747 -27.9091 129.073 -50.9447 20.3311 -6.82483 -9.18934 3.50917 130.413 22.3815 0.625503 25.5356 -10.1033 28.5885 1.71141 8.45864 -89.2805 9.93998 3.73779 1.12302 -1.72594 3.78358 0.957207 -24.2913 3.22739 2.19534 -4.27868 3.22736 2.19532 89.8244 -35.5303 -104.943 31.7724 -23.7323 -29.144 6.94052 -51.0121 -9.52303 -5.00941 -0.248929 0.890081 -88.7831 -48.3112 80.436 -33.3862 1.10947 0.284334 0.983515 15.5404 -10.8971 3.41088 0.496293 7.31636 17.425 0.175784 4.15675 0.198358 -1.2477 -8.22768 
-2629.81 453.107 1679.36 -101.976 -32.0282 -101.279 177.766 64.356 113.237 -4.40364 11.6919 -9.5251 13.9428 -18.9552 -31.846 12.1232 7.84137 -30.7484 123.582 -48.8532 12.5604 -6.6799 -16.7988 1.94793 120.812 21.7356 2.95764 35.0317 -6.69026 31.4728 1.616 7.87878 -89.1966 11.1006 3.58965 1.24984 -0.565851 3.64116 1.09046 -23.127 3.04801 2.27157 -3.1143 3.048 2.27156 89.8781 -35.9166 -104.717 37.3414 -21.1198 -23.3047 6.09964 -40.3188 -8.0187 -8.38082 -0.589573 3.44942 -88.5133 -47.5311 80.6912 -37.2884 -1.13891 2.8821 1.34933 7.97676 -9.82786 3.43994 0.481354 6.96806 15.2498 1.36534 2.05135 -2.49344 0.748714 -9.22419 
-2778.02 457.813 1762.52 -102.401 -28.6518 -103.476 179.249 59.1745 110.529 -5.92943 15.092 -3.18292 11.7708 -24.7162 -39.8259 1.55416 7.64842 -32.1747 116.572 -45.0691 2.71457 -4.73582 -29.7359 -0.268054 97.7003 19.0905 10.3951 26.4191 -9.44308 28.6921 1.51973 7.85006 -88.8072 11.1405 3.57886 2.02823 -0.526811 3.66462 1.86863 -23.0759 2.80405 3.01017 -3.06325 2.80402 3.01016 90.1151 -36.2109 -104.192 39.5718 -19.7902 -19.9552 4.5051 -34.8114 -8.66423 -8.29057 -0.55603 3.04371 -88.5189 -46.5462 80.4829 -35.0844 1.08671 -0.564595 -0.680521 6.0191 -6.18544 3.55112 0.469556 6.69892 15.8601 1.61243 -0.36117 -3.44366 1.72108 -9.99063 
